<?xml version="1.0" encoding="UTF-8" standalone="no"?>
<svg
   xmlns:dc="http://purl.org/dc/elements/1.1/"
   xmlns:cc="http://creativecommons.org/ns#"
   xmlns:rdf="http://www.w3.org/1999/02/22-rdf-syntax-ns#"
   xmlns:svg="http://www.w3.org/2000/svg"
   xmlns="http://www.w3.org/2000/svg"
   viewBox="0 0 652 657.99999"
   height="658"
   width="652"
   xml:space="preserve"
   id="svg2"
   version="1.1"><metadata
     id="metadata8"><rdf:RDF><cc:Work
         rdf:about=""><dc:format>image/svg+xml</dc:format><dc:type
           rdf:resource="http://purl.org/dc/dcmitype/StillImage" /><dc:title></dc:title></cc:Work></rdf:RDF></metadata><defs
     id="defs6"><clipPath
       id="clipPath18"
       clipPathUnits="userSpaceOnUse"><path
         id="path16"
         d="m 294.729,544.451 c -40.801,-5.46 -70.431,-40.377 -70.329,-80.46 v 0 h 114.26 c 19.272,0 37.935,2.592 55.676,7.422 v 0 c -2.589,0.244 -5.204,0.398 -7.844,0.455 v 0 c -0.027,-0.796 -0.415,1.185 -0.655,2.979 v 0 c -5.45,40.731 -40.257,70.329 -80.252,70.329 v 0 c -3.583,0 -7.207,-0.237 -10.856,-0.725" /></clipPath><linearGradient
       id="linearGradient30"
       spreadMethod="pad"
       gradientTransform="matrix(155.41116,4.3471656,4.3471656,-155.41116,230.73831,502.00156)"
       gradientUnits="userSpaceOnUse"
       y2="0"
       x2="1"
       y1="0"
       x1="0"><stop
         id="stop24"
         offset="0"
         style="stop-opacity:1;stop-color:#f0a93f" /><stop
         id="stop26"
         offset="0.00000081"
         style="stop-opacity:1;stop-color:#f0a93f" /><stop
         id="stop28"
         offset="1"
         style="stop-opacity:1;stop-color:#e35a28" /></linearGradient><clipPath
       id="clipPath40"
       clipPathUnits="userSpaceOnUse"><path
         id="path38"
         d="m 90.01,707.209 c -16.133,0 -29.211,-13.079 -29.211,-29.212 v 0 -183.474 c 0,-16.862 13.669,-30.532 30.531,-30.532 v 0 h 25.489 c -0.193,107.99 92.328,199.831 210.551,187.749 v 0 c 61.628,-6.299 131.035,-59.337 153.361,-117.122 v 0 c 1.534,-3.968 2.913,-7.939 4.175,-11.909 v 0 c 40.208,38.5 65.251,92.714 65.251,152.779 v 0 2.509 c 0,16.133 -13.079,29.212 -29.212,29.212 v 0 z" /></clipPath><linearGradient
       id="linearGradient52"
       spreadMethod="pad"
       gradientTransform="matrix(451.69467,12.634817,12.634817,-451.69467,79.77034,584.94452)"
       gradientUnits="userSpaceOnUse"
       y2="0"
       x2="1"
       y1="0"
       x1="0"><stop
         id="stop46"
         offset="0"
         style="stop-opacity:1;stop-color:#f0a93f" /><stop
         id="stop48"
         offset="0.00000081"
         style="stop-opacity:1;stop-color:#f0a93f" /><stop
         id="stop50"
         offset="1"
         style="stop-opacity:1;stop-color:#e35a28" /></linearGradient><clipPath
       id="clipPath62"
       clipPathUnits="userSpaceOnUse"><path
         id="path60"
         d="M 386.954,464.584 H 272.295 c -16.408,0 -32.379,-1.87 -47.714,-5.405 v 0 c 0.569,-8.596 2.508,-17.377 6.007,-26.113 v 0 c 10.327,-25.782 33.641,-44.357 61.082,-48.645 v 0 c 14.379,-2.247 27.895,-0.834 40.002,3.299 v 0 c 3.482,1.188 7.088,-1.451 7.088,-5.128 v 0 -98.371 l -0.032,-5.283 c -3.078,-0.569 -5.087,-1.066 -8.226,-1.486 v 0 c -91.691,-12.27 -176.789,43.521 -204.398,128.465 v 0 C 85.863,367.414 60.799,313.178 60.799,253.087 v 0 -2.51 c 0,-16.132 13.078,-29.21 29.211,-29.21 v 0 h 430.935 c 16.133,0 29.212,13.078 29.212,29.21 v 0 183.475 c 0,16.862 -13.67,30.532 -30.532,30.532 v 0 h -25.469 c 0.005,-3.281 -0.074,-6.546 -0.238,-9.794 v 0 c -0.87,-17.262 -21.727,-25.607 -34.064,-13.501 v 0 c -18.858,18.504 -44.484,30.167 -72.9,30.915 v 0 z m 28.09,-188.253 -20.661,0.233 c -1.241,0.014 -2.24,1.024 -2.24,2.264 v 0 182.998 c 6.472,-0.348 12.692,-1.423 18.635,-3.106 v 0 c 3.739,-1.057 6.556,-4.104 6.556,-7.989 v 0 -172.135 c 0,-1.252 -1.015,-2.265 -2.262,-2.265 v 0 c -0.009,0 -0.019,0 -0.028,0 m 38.255,0 -19.218,0.198 c -1.647,0.017 -2.974,1.239 -2.974,2.741 v 0 165.202 c 0,2.039 2.376,3.408 4.359,2.459 v 0 c 6.939,-3.323 14.343,-11.462 19.727,-16.562 v 0 c 0.65,-0.616 1.15,-1.323 1.15,-2.166 v 0 -149.131 c 0,-1.515 -1.349,-2.741 -3.007,-2.741 v 0 c -0.013,0 -0.024,0 -0.037,0 m -76.933,0 -21.276,0.257 c -1.172,0.014 -2.115,1.036 -2.115,2.292 v 0 111.007 c 0,2.461 1.631,5.479 3.594,6.756 v 0 c 12.434,8.083 12.989,15.698 21.96,23.707 v 0 -141.727 c 0,-1.267 -0.959,-2.292 -2.136,-2.292 v 0 c -0.009,0 -0.018,0 -0.027,0 m 109.818,0 -14.472,0.154 v 135.954 c 0,1.866 2.555,2.582 3.65,1.031 v 0 c 9.702,-13.749 16.157,-29.708 18.348,-46.886 v 0 -70.447 l -0.263,-13.107 c -0.055,-3.718 -3.259,-6.699 -7.181,-6.699 v 0 c -0.027,0 -0.055,0 -0.082,0" /></clipPath><linearGradient
       id="linearGradient74"
       spreadMethod="pad"
       gradientTransform="matrix(489.35837,0,0,-489.35837,60.798576,346.78488)"
       gradientUnits="userSpaceOnUse"
       y2="0"
       x2="1"
       y1="0"
       x1="0"><stop
         id="stop68"
         offset="0"
         style="stop-opacity:1;stop-color:#1671b3" /><stop
         id="stop70"
         offset="0.00000013"
         style="stop-opacity:1;stop-color:#1671b3" /><stop
         id="stop72"
         offset="1"
         style="stop-opacity:1;stop-color:#1b3d89" /></linearGradient><clipPath
       id="clipPath84"
       clipPathUnits="userSpaceOnUse"><path
         id="path82"
         d="m 217.631,464.288 c 0,-48.518 39.33,-87.848 87.846,-87.848 v 0 c 48.517,0 87.848,39.33 87.848,87.848 v 0 c 0,48.517 -39.331,87.847 -87.848,87.847 v 0 c -48.516,0 -87.846,-39.33 -87.846,-87.847" /></clipPath><linearGradient
       id="linearGradient96"
       spreadMethod="pad"
       gradientTransform="matrix(85.444298,-58.208931,-58.208931,-85.444298,241.44981,507.90656)"
       gradientUnits="userSpaceOnUse"
       y2="0"
       x2="1"
       y1="0"
       x1="0"><stop
         id="stop90"
         offset="0"
         style="stop-opacity:1;stop-color:#f0a93f" /><stop
         id="stop92"
         offset="0.00000081"
         style="stop-opacity:1;stop-color:#f0a93f" /><stop
         id="stop94"
         offset="1"
         style="stop-opacity:1;stop-color:#e35a28" /></linearGradient></defs><g
     transform="matrix(1.3333333,0,0,-1.3333333,0,657.99998)"
     id="g10"><g
       transform="translate(-64.5,-211.5)"
       id="g12"><g
         clip-path="url(#clipPath18)"
         id="g14"><g
           id="g20"><g
             id="g22"><path
               id="path32"
               style="fill:url(#linearGradient30);stroke:none"
               d="m 294.729,544.451 c -40.801,-5.46 -70.431,-40.377 -70.329,-80.46 v 0 h 114.26 c 19.272,0 37.935,2.592 55.676,7.422 v 0 c -2.589,0.244 -5.204,0.398 -7.844,0.455 v 0 c -0.027,-0.796 -0.415,1.185 -0.655,2.979 v 0 c -5.45,40.731 -40.257,70.329 -80.252,70.329 v 0 c -3.583,0 -7.207,-0.237 -10.856,-0.725" /></g></g></g></g><g
       transform="translate(-58.5,-217.5)"
       id="g34"><g
         clip-path="url(#clipPath40)"
         id="g36"><g
           id="g42"><g
             id="g44"><path
               id="path54"
               style="fill:url(#linearGradient52);stroke:none"
               d="m 90.01,707.209 c -16.133,0 -29.211,-13.079 -29.211,-29.212 v 0 -183.474 c 0,-16.862 13.669,-30.532 30.531,-30.532 v 0 h 25.489 c -0.193,107.99 92.328,199.831 210.551,187.749 v 0 c 61.628,-6.299 131.035,-59.337 153.361,-117.122 v 0 c 1.534,-3.968 2.913,-7.939 4.175,-11.909 v 0 c 40.208,38.5 65.251,92.714 65.251,152.779 v 0 2.509 c 0,16.133 -13.079,29.212 -29.212,29.212 v 0 z" /></g></g></g></g><g
       transform="translate(-58.5,-217.5)"
       id="g56"><g
         clip-path="url(#clipPath62)"
         id="g58"><g
           id="g64"><g
             id="g66"><path
               id="path76"
               style="fill:url(#linearGradient74);stroke:none"
               d="M 386.954,464.584 H 272.295 c -16.408,0 -32.379,-1.87 -47.714,-5.405 v 0 c 0.569,-8.596 2.508,-17.377 6.007,-26.113 v 0 c 10.327,-25.782 33.641,-44.357 61.082,-48.645 v 0 c 14.379,-2.247 27.895,-0.834 40.002,3.299 v 0 c 3.482,1.188 7.088,-1.451 7.088,-5.128 v 0 -98.371 l -0.032,-5.283 c -3.078,-0.569 -5.087,-1.066 -8.226,-1.486 v 0 c -91.691,-12.27 -176.789,43.521 -204.398,128.465 v 0 C 85.863,367.414 60.799,313.178 60.799,253.087 v 0 -2.51 c 0,-16.132 13.078,-29.21 29.211,-29.21 v 0 h 430.935 c 16.133,0 29.212,13.078 29.212,29.21 v 0 183.475 c 0,16.862 -13.67,30.532 -30.532,30.532 v 0 h -25.469 c 0.005,-3.281 -0.074,-6.546 -0.238,-9.794 v 0 c -0.87,-17.262 -21.727,-25.607 -34.064,-13.501 v 0 c -18.858,18.504 -44.484,30.167 -72.9,30.915 v 0 z m 28.09,-188.253 -20.661,0.233 c -1.241,0.014 -2.24,1.024 -2.24,2.264 v 0 182.998 c 6.472,-0.348 12.692,-1.423 18.635,-3.106 v 0 c 3.739,-1.057 6.556,-4.104 6.556,-7.989 v 0 -172.135 c 0,-1.252 -1.015,-2.265 -2.262,-2.265 v 0 c -0.009,0 -0.019,0 -0.028,0 m 38.255,0 -19.218,0.198 c -1.647,0.017 -2.974,1.239 -2.974,2.741 v 0 165.202 c 0,2.039 2.376,3.408 4.359,2.459 v 0 c 6.939,-3.323 14.343,-11.462 19.727,-16.562 v 0 c 0.65,-0.616 1.15,-1.323 1.15,-2.166 v 0 -149.131 c 0,-1.515 -1.349,-2.741 -3.007,-2.741 v 0 c -0.013,0 -0.024,0 -0.037,0 m -76.933,0 -21.276,0.257 c -1.172,0.014 -2.115,1.036 -2.115,2.292 v 0 111.007 c 0,2.461 1.631,5.479 3.594,6.756 v 0 c 12.434,8.083 12.989,15.698 21.96,23.707 v 0 -141.727 c 0,-1.267 -0.959,-2.292 -2.136,-2.292 v 0 c -0.009,0 -0.018,0 -0.027,0 m 109.818,0 -14.472,0.154 v 135.954 c 0,1.866 2.555,2.582 3.65,1.031 v 0 c 9.702,-13.749 16.157,-29.708 18.348,-46.886 v 0 -70.447 l -0.263,-13.107 c -0.055,-3.718 -3.259,-6.699 -7.181,-6.699 v 0 c -0.027,0 -0.055,0 -0.082,0" /></g></g></g></g><g
       transform="translate(-58.5,-217.5)"
       id="g78"><g
         clip-path="url(#clipPath84)"
         id="g80"><g
           id="g86"><g
             id="g88"><path
               id="path98"
               style="fill:url(#linearGradient96);stroke:none"
               d="m 217.631,464.288 c 0,-48.518 39.33,-87.848 87.846,-87.848 v 0 c 48.517,0 87.848,39.33 87.848,87.848 v 0 c 0,48.517 -39.331,87.847 -87.848,87.847 v 0 c -48.516,0 -87.846,-39.33 -87.846,-87.847" /></g></g></g></g></g></svg>