<?xml version="1.0" encoding="UTF-8" standalone="no"?>
<!-- Created with Inkscape (http://www.inkscape.org/) -->

<svg
   xmlns:dc="http://purl.org/dc/elements/1.1/"
   xmlns:cc="http://creativecommons.org/ns#"
   xmlns:rdf="http://www.w3.org/1999/02/22-rdf-syntax-ns#"
   xmlns:svg="http://www.w3.org/2000/svg"
   xmlns="http://www.w3.org/2000/svg"
   xmlns:sodipodi="http://sodipodi.sourceforge.net/DTD/sodipodi-0.dtd"
   xmlns:inkscape="http://www.inkscape.org/namespaces/inkscape"
   version="1.1"
   id="svg2"
   xml:space="preserve"
   width="4000"
   height="4000"
   viewBox="0 0 4000 4000"
   sodipodi:docname="logo-full.svg"
   inkscape:export-filename="/mnt/repo/repo/zhanqun/2020logo/logo-full.png"
   inkscape:export-xdpi="96"
   inkscape:export-ydpi="96"
   inkscape:version="0.92.4 (5da689c313, 2019-01-14)"><metadata
     id="metadata8"><rdf:RDF><cc:Work
         rdf:about=""><dc:format>image/svg+xml</dc:format><dc:type
           rdf:resource="http://purl.org/dc/dcmitype/StillImage" /><dc:title></dc:title></cc:Work></rdf:RDF></metadata><defs
     id="defs6"><clipPath
       clipPathUnits="userSpaceOnUse"
       id="clipPath18"><path
         d="m 832.328,692.641 c -10.521,0 -19.164,-2.795 -25.93,-8.38 v 0 c -6.762,-5.589 -10.145,-11.784 -10.145,-18.571 v 0 l 0.376,-270.837 h 18.038 c 5.007,0 9.264,1.536 12.776,4.602 v 0 c 3.505,3.072 5.26,6.795 5.26,11.174 v 0 l -0.375,191.296 h 269.807 c 10.017,0 18.162,2.243 24.426,6.737 v 0 c 6.261,4.489 9.395,11.228 9.395,20.214 v 0 36.814 c 0,3.724 -1.443,7.668 -4.321,11.832 v 0 c -2.884,4.16 -7.081,7.723 -12.589,10.683 v 0 c -5.514,2.957 -11.9,4.436 -19.165,4.436 v 0 z m 0,-26.951 h 246.886 c 7.763,0 13.151,-1.099 16.157,-3.287 v 0 c 3.009,-2.194 4.51,-6.029 4.51,-11.503 v 0 -22.024 H 832.328 Z m 210.811,-69.024 V 578.259 H 934.915 v 18.407 H 898.839 V 578.259 H 848.111 V 563.3 c 0,-6.623 5.37,-11.992 11.993,-11.992 v 0 h 30.469 c 2.502,0 4.51,-0.771 6.011,-2.3 v 0 c 1.504,-1.537 2.255,-3.401 2.255,-5.589 v 0 -32.867 H 843.227 V 483.6 h 22.546 v -57.192 l -6.39,-0.328 v -27.938 c 21.292,0 42.465,1.207 63.506,3.613 v 0 c 21.044,2.416 38.33,5.81 51.86,10.19 v 0 27.938 c -19.794,-5.695 -44.097,-9.531 -72.901,-11.503 v 0 55.22 h 70.645 c 13.527,-24.982 34.318,-44.48 62.377,-58.508 v 0 c 28.057,-14.02 61.752,-24.1 101.086,-30.239 v 0 31.555 c -19.294,2.85 -35.701,6.357 -49.227,10.518 v 0 l 20.292,35.827 h -36.076 l -12.775,-25.637 c -22.049,10.296 -38.331,22.458 -48.851,36.484 v 0 h 108.601 c 4.753,-0.222 8.952,0.929 12.586,3.449 v 0 c 3.631,2.519 5.45,5.641 5.45,9.369 v 0 14.134 h -56.742 v 40.756 h 52.232 v 26.951 h -52.232 v 18.407 z M 934.915,551.308 h 99.955 c 2.502,0 4.51,-0.771 6.014,-2.3 v 0 c 1.505,-1.537 2.255,-3.401 2.255,-5.589 v 0 -32.867 H 934.915 Z"
         id="path16"
         inkscape:connector-curvature="0" /></clipPath><linearGradient
       x1="0"
       y1="0"
       x2="1"
       y2="0"
       gradientUnits="userSpaceOnUse"
       gradientTransform="matrix(114.07797,-160.0497,-160.0497,-114.07797,850.646,695.40863)"
       spreadMethod="pad"
       id="linearGradient30"><stop
         style="stop-opacity:1;stop-color:#0778c0"
         offset="0"
         id="stop24" /><stop
         style="stop-opacity:1;stop-color:#0778c0"
         offset="0.00000013"
         id="stop26" /><stop
         style="stop-opacity:1;stop-color:#1c3e92"
         offset="1"
         id="stop28" /></linearGradient><clipPath
       clipPathUnits="userSpaceOnUse"
       id="clipPath40"><path
         d="m 1463.633,693.957 -10.895,-35.499 h -36.076 l -10.899,35.499 h -36.072 l 10.896,-35.499 h -22.17 v -26.953 h 49.601 c 2.502,0 4.568,-0.769 6.201,-2.3 v 0 c 1.626,-1.535 2.443,-3.4 2.443,-5.587 v 0 -57.19 h -53.736 v -26.954 h 45.092 c 2.502,0 4.568,-0.771 6.201,-2.3 v 0 c 1.626,-1.535 2.443,-3.399 2.443,-5.588 v 0 -63.105 h -62.755 v -26.954 h 62.755 v -46.674 h 36.076 v 46.674 h 47.721 c 10.017,0 15.033,4.49 15.033,13.475 v 0 13.479 h -62.754 v 70.993 h 54.11 v 26.954 h -54.11 v 65.077 h 58.244 v 26.953 h -22.17 l 10.897,35.499 z m -282.208,-27.281 h 42.464 l -1.128,-31.883 h -46.596 v -26.952 h 45.092 c -0.751,-12.711 -2.008,-23.556 -3.757,-32.539 v 0 h -36.075 v -26.954 h 29.311 c -3.757,-10.08 -8.895,-19.01 -15.406,-26.786 v 0 c -6.517,-7.781 -15.03,-15.286 -25.554,-22.515 v 0 -22.632 c 0,-3.892 4.303,-6.266 7.587,-4.177 v 0 c 7.536,4.79 13.773,9.016 18.717,12.674 v 0 -90.059 h 112.735 c 9.017,0 16.721,2.796 23.11,8.381 v 0 c 6.387,5.589 9.582,12.327 9.582,20.214 v 0 70.341 c 0,7.887 -3.195,14.676 -9.582,20.377 v 0 c -6.389,5.696 -14.093,8.546 -23.11,8.546 v 0 h -77.034 c 4.256,6.573 8.39,15.119 12.4,25.636 v 0 h 77.41 c 8.013,0 13.024,1.81 15.03,5.424 v 0 c 2.002,3.616 3.006,8.818 3.006,15.613 v 0 38.456 h 10.524 v 26.952 h -10.524 v 29.91 c 0,7.889 -3.195,14.628 -9.581,20.214 v 0 c -6.389,5.589 -14.093,8.383 -23.11,8.383 v 0 l -125.511,0.328 z m 78.915,-0.329 h 34.196 c 2.499,0 4.631,-0.771 6.386,-2.3 v 0 c 1.751,-1.537 2.63,-3.4 2.63,-5.589 v 0 -23.665 h -44.341 c 0.751,9.862 1.129,20.38 1.129,31.554 m -3.384,-58.506 h 27.431 l 10.524,-0.329 c 2.499,0 4.568,-0.771 6.2,-2.3 v 0 c 1.626,-1.535 2.441,-3.401 2.441,-5.589 v 0 -24.321 h -51.856 c 2.503,10.734 4.257,21.58 5.26,32.539 m -24.8,-112.081 h 64.256 c 2.502,0 4.635,-0.82 6.389,-2.466 v 0 c 1.749,-1.643 2.631,-3.564 2.631,-5.751 v 0 -65.736 h -73.276 z"
         id="path38"
         inkscape:connector-curvature="0" /></clipPath><linearGradient
       x1="0"
       y1="0"
       x2="1"
       y2="0"
       gradientUnits="userSpaceOnUse"
       gradientTransform="matrix(98.754074,-137.91518,-137.91518,-98.754074,1242.0684,692.1969)"
       spreadMethod="pad"
       id="linearGradient52"><stop
         style="stop-opacity:1;stop-color:#0778c0"
         offset="0"
         id="stop46" /><stop
         style="stop-opacity:1;stop-color:#0778c0"
         offset="0.00000013"
         id="stop48" /><stop
         style="stop-opacity:1;stop-color:#1c3e92"
         offset="1"
         id="stop50" /></linearGradient><clipPath
       clipPathUnits="userSpaceOnUse"
       id="clipPath62"><path
         d="M 1829.265,693.957 V 481.955 L 1709.14,449.766 c -5.835,-1.563 -9.892,-6.85 -9.892,-12.89 v 0 -16.713 l 130.017,34.839 v -60.476 h 36.076 v 70.009 l 22.17,5.917 v 26.95 l -22.17,-5.914 v 186.776 c 0,8.667 -7.026,15.693 -15.693,15.693 v 0 z m -281.832,-2.629 v -26.953 h 52.234 v -47.658 h -42.754 c -6.273,0 -11.359,-5.086 -11.359,-11.36 v 0 -15.593 h 54.113 V 394.526 h 36.072 v 195.238 h 42.037 c 6.462,0 11.702,5.239 11.702,11.702 v 0 15.251 h -53.739 v 47.658 h 33.07 c 6.258,0 11.021,1.644 14.28,4.93 v 0 c 3.253,3.287 4.884,7.011 4.884,11.176 v 0 10.847 z m 177.742,-5.589 48.1,-97.619 h 36.074 l -43.578,88.442 c -2.768,5.618 -8.488,9.177 -14.752,9.177 v 0 z m -20.666,-109.122 48.1,-97.619 h 36.072 l -43.772,88.841 c -2.649,5.375 -8.12,8.778 -14.111,8.778 v 0 z m -154.821,-22.68 v -142.32 h 18.79 c 7.261,0 11.957,2.084 14.09,6.245 v 0 c 2.128,4.163 3.195,9.974 3.195,17.42 v 0 118.655 z m 89.06,-1.316 25.176,-82.169 h 36.075 l -22.15,72.282 c -1.799,5.875 -7.225,9.887 -13.37,9.887 v 0 z"
         id="path60"
         inkscape:connector-curvature="0" /></clipPath><linearGradient
       x1="0"
       y1="0"
       x2="1"
       y2="0"
       gradientUnits="userSpaceOnUse"
       gradientTransform="matrix(100.45673,-125.99657,-125.99657,-100.45673,1597.1122,686.15668)"
       spreadMethod="pad"
       id="linearGradient74"><stop
         style="stop-opacity:1;stop-color:#0778c0"
         offset="0"
         id="stop68" /><stop
         style="stop-opacity:1;stop-color:#0778c0"
         offset="0.00000013"
         id="stop70" /><stop
         style="stop-opacity:1;stop-color:#1c3e92"
         offset="1"
         id="stop72" /></linearGradient><clipPath
       clipPathUnits="userSpaceOnUse"
       id="clipPath84"><path
         d="m 2134.769,693.957 v -31.883 h -74.25 c -6.308,0 -11.423,-5.115 -11.423,-11.423 v 0 -4.302 c 0,-6.201 5.027,-11.228 11.228,-11.228 v 0 h 65.054 c 4.254,0 6.884,-0.606 7.89,-1.806 v 0 c 0.995,-1.206 1.501,-3.566 1.501,-7.068 v 0 -31.226 h -64.296 c -5.789,0 -10.484,-4.693 -10.484,-10.483 v 0 -16.467 h 159.709 c 0,-9.205 -5.074,-20.544 -15.223,-34.019 v 0 c -10.142,-13.476 -23.735,-27.338 -40.767,-41.578 v 0 l -63.509,62.12 h -40.21 l 81.548,-79.541 c -14.786,-10.739 -30.066,-20.328 -45.848,-28.759 v 0 c -15.781,-8.434 -30.939,-15.064 -45.469,-19.886 v 0 -31.555 c 18.789,5.918 38.015,13.919 57.683,23.993 v 0 c 19.663,10.084 38.517,21.366 56.555,33.856 v 0 l 58.994,-57.849 h 40.209 l -76.66,74.94 c 21.048,16.873 37.771,33.905 50.172,51.112 v 0 c 12.4,17.198 18.598,32.92 18.598,47.166 v 0 9.859 c 0,5.696 -1.629,9.968 -4.883,12.819 v 0 c -3.259,2.845 -9.019,4.272 -17.289,4.272 v 0 h -62.751 v 40.1 h 77.442 c 6.622,0 11.99,5.369 11.99,11.991 v 0 14.962 h -89.432 v 19.186 c 0,7.012 -5.684,12.697 -12.696,12.697 v 0 z m -166.469,0 v -40.1 h -43.214 v -17.502 c 0,-5.22 4.232,-9.451 9.452,-9.451 v 0 h 25.12 c 2.502,0 4.568,-0.769 6.203,-2.3 v 0 c 1.624,-1.535 2.439,-3.401 2.439,-5.587 v 0 -101.563 l -27.297,-5.619 c -6.422,-1.323 -11.03,-6.976 -11.03,-13.532 v 0 -16.676 l 38.327,8.218 v -54.891 c 0,-8.763 -3.754,-13.147 -11.272,-13.147 v 0 h -34.946 v -13.478 c 0,-3.722 1.563,-6.901 4.696,-9.53 v 0 c 3.13,-2.629 6.7,-3.946 10.71,-3.946 v 0 h 31.941 c 11.27,0 19.917,3.073 25.929,9.204 v 0 c 6.011,6.137 9.018,13.04 9.018,20.707 v 0 72.638 l 29.684,6.245 c 4.259,0.873 7.896,3.123 10.899,6.739 v 0 c 3.009,3.617 4.509,7.284 4.509,11.013 v 0 13.146 l -45.092,-9.534 v 101.893 h 41.334 v 19.286 c 0,4.235 -3.433,7.667 -7.667,7.667 v 0 h -33.667 v 40.1 z"
         id="path82"
         inkscape:connector-curvature="0" /></clipPath><linearGradient
       x1="0"
       y1="0"
       x2="1"
       y2="0"
       gradientUnits="userSpaceOnUse"
       gradientTransform="matrix(97.051415,-166.86032,-166.86032,-97.051415,1999.5378,691.15656)"
       spreadMethod="pad"
       id="linearGradient96"><stop
         style="stop-opacity:1;stop-color:#0778c0"
         offset="0"
         id="stop90" /><stop
         style="stop-opacity:1;stop-color:#0778c0"
         offset="0.00000013"
         id="stop92" /><stop
         style="stop-opacity:1;stop-color:#1c3e92"
         offset="1"
         id="stop94" /></linearGradient><clipPath
       clipPathUnits="userSpaceOnUse"
       id="clipPath106"><path
         d="m 991.284,980.614 c 0,-94.355 72.837,-170.845 162.684,-170.845 v 0 c 29.663,0 57.447,8.378 81.393,22.942 v 0 -0.703 c 0,-8.218 6.344,-14.879 14.168,-14.879 v 0 h 52.955 c 7.826,0 14.17,6.661 14.17,14.879 v 0 70.552 58.555 18.375 h -0.027 c 0,0.376 0.027,0.748 0.027,1.124 v 0 c 0,94.356 -72.837,170.846 -162.686,170.846 v 0 c -89.847,0 -162.684,-76.49 -162.684,-170.846 m 72.067,0 c 0,52.559 40.57,95.164 90.617,95.164 v 0 c 50.048,0 90.62,-42.605 90.62,-95.164 v 0 c 0,-52.557 -40.572,-95.163 -90.62,-95.163 v 0 c -50.047,0 -90.617,42.606 -90.617,95.163"
         id="path104"
         inkscape:connector-curvature="0" /></clipPath><linearGradient
       x1="0"
       y1="0"
       x2="1"
       y2="0"
       gradientUnits="userSpaceOnUse"
       gradientTransform="matrix(186.16072,-279.24109,-279.24109,-186.16072,1029.2,1167.7678)"
       spreadMethod="pad"
       id="linearGradient118"><stop
         style="stop-opacity:1;stop-color:#0778c0"
         offset="0"
         id="stop112" /><stop
         style="stop-opacity:1;stop-color:#0778c0"
         offset="0.00000013"
         id="stop114" /><stop
         style="stop-opacity:1;stop-color:#1c3e92"
         offset="1"
         id="stop116" /></linearGradient><clipPath
       clipPathUnits="userSpaceOnUse"
       id="clipPath128"><path
         d="m 2369.16,1139.536 c 0,-0.52 0.374,-153.364 0.374,-156.916 v 0 c 0,-50.072 -38.773,-90.664 -86.601,-90.664 v 0 c -47.83,0 -86.602,40.592 -86.602,90.664 v 0 10.513 l 0.154,146.39 c 0,0.01 -0.01,0.014 -0.014,0.014 v 0 h -77.914 c -0.01,0 -0.015,0.01 -0.015,-10e-4 v 0 c -0.01,-0.515 -1.638,-155.577 -1.638,-163.72 v 0 c 0,-94.06 72.834,-170.311 162.682,-170.311 v 0 c 89.846,0 162.68,76.251 162.68,170.311 v 0 c 0,5.854 -0.036,163.721 -0.036,163.721 v 0 h -73.056 c 0,0 -0.01,0 -0.012,0 v 0 c -10e-4,0 0,-10e-4 0,0"
         id="path126"
         inkscape:connector-curvature="0" /></clipPath><linearGradient
       x1="0"
       y1="0"
       x2="1"
       y2="0"
       gradientUnits="userSpaceOnUse"
       gradientTransform="matrix(167.61583,-373.1824,-373.1824,-167.61583,2214.1606,1184.2302)"
       spreadMethod="pad"
       id="linearGradient140"><stop
         style="stop-opacity:1;stop-color:#0778c0"
         offset="0"
         id="stop134" /><stop
         style="stop-opacity:1;stop-color:#0778c0"
         offset="0.00000013"
         id="stop136" /><stop
         style="stop-opacity:1;stop-color:#1c3e92"
         offset="1"
         id="stop138" /></linearGradient><clipPath
       clipPathUnits="userSpaceOnUse"
       id="clipPath150"><path
         d="m 1366.492,975.272 c 0,-6.08 0.876,-91.169 1.369,-138.516 v 0 c 0.181,-17.323 14.886,-31.251 32.964,-31.251 v 0 h 15.178 c 18.219,0 32.983,14.163 32.965,31.623 v 0 l -0.127,120.189 v 10.9 c 0,51.922 40.199,106.272 89.789,106.272 v 0 c 49.588,0 89.789,-54.35 89.789,-106.272 v 0 c 0,-2.634 -0.198,-84.498 -0.312,-131.079 v 0 c -0.041,-17.476 14.73,-31.633 32.965,-31.633 v 0 h 9.761 c 18.203,0 32.961,14.116 32.965,31.561 v 0 c 0.011,47.886 0.03,133.84 0.03,138.206 v 0 c 0,97.535 -75.516,176.603 -168.669,176.603 v 0 c -93.153,0 -168.667,-79.068 -168.667,-176.603"
         id="path148"
         inkscape:connector-curvature="0" /></clipPath><linearGradient
       x1="0"
       y1="0"
       x2="1"
       y2="0"
       gradientUnits="userSpaceOnUse"
       gradientTransform="matrix(132.83781,-268.83841,-268.83841,-132.83781,1415.7227,1167.2465)"
       spreadMethod="pad"
       id="linearGradient162"><stop
         style="stop-opacity:1;stop-color:#0778c0"
         offset="0"
         id="stop156" /><stop
         style="stop-opacity:1;stop-color:#0778c0"
         offset="0.00000013"
         id="stop158" /><stop
         style="stop-opacity:1;stop-color:#1c3e92"
         offset="1"
         id="stop160" /></linearGradient><clipPath
       clipPathUnits="userSpaceOnUse"
       id="clipPath172"><path
         d="m 2492.112,975.069 c 0,-8.447 1.697,-169.564 1.697,-169.564 v 0 h 80.812 l -0.16,151.63 v 10.889 c 0,51.858 40.199,93.899 89.789,93.899 v 0 c 49.588,0 89.789,-42.041 89.789,-93.899 v 0 c 0,-3.686 -0.387,-162.519 -0.387,-162.519 v 0 h 75.759 c 0,0 0.037,163.501 0.037,169.564 v 0 c 0,97.417 -75.516,176.391 -168.669,176.391 v 0 c -93.153,0 -168.667,-78.974 -168.667,-176.391"
         id="path170"
         inkscape:connector-curvature="0" /></clipPath><linearGradient
       x1="0"
       y1="0"
       x2="1"
       y2="0"
       gradientUnits="userSpaceOnUse"
       gradientTransform="matrix(62.807091,-307.75476,-307.75476,-62.807091,2606.543,1169.6001)"
       spreadMethod="pad"
       id="linearGradient184"><stop
         style="stop-opacity:1;stop-color:#0778c0"
         offset="0"
         id="stop178" /><stop
         style="stop-opacity:1;stop-color:#0778c0"
         offset="0.00000013"
         id="stop180" /><stop
         style="stop-opacity:1;stop-color:#1c3e92"
         offset="1"
         id="stop182" /></linearGradient><clipPath
       clipPathUnits="userSpaceOnUse"
       id="clipPath194"><path
         d="M 639.814,1199.913 V 806.165 h 55.508 c 21.892,0 39.647,17.734 39.673,39.626 v 0 l 0.112,91.608 c 0,34.924 31.323,63.336 69.825,63.336 v 0 c 38.499,0 69.822,-28.412 69.822,-63.336 v 0 c 0,-1.761 -0.14,-53.216 -0.246,-91.058 v 0 c -0.06,-21.955 17.72,-39.766 39.674,-39.766 v 0 h 41.227 l 0.031,136.156 c 0,77.93 -68.864,141.328 -153.509,141.328 v 0 c -19.317,0 -37.807,-3.308 -54.846,-9.332 v 0 c -5.915,-2.093 -12.138,2.133 -12.138,8.407 v 0 85.403 c 0,17.328 -14.048,31.376 -31.377,31.376 v 0 z"
         id="path192"
         inkscape:connector-curvature="0" /></clipPath><linearGradient
       x1="0"
       y1="0"
       x2="1"
       y2="0"
       gradientUnits="userSpaceOnUse"
       gradientTransform="matrix(235.14256,-382.10666,-382.10666,-235.14256,606.32971,1203.9072)"
       spreadMethod="pad"
       id="linearGradient206"><stop
         style="stop-opacity:1;stop-color:#0778c0"
         offset="0"
         id="stop200" /><stop
         style="stop-opacity:1;stop-color:#0778c0"
         offset="0.00000013"
         id="stop202" /><stop
         style="stop-opacity:1;stop-color:#1c3e92"
         offset="1"
         id="stop204" /></linearGradient><clipPath
       clipPathUnits="userSpaceOnUse"
       id="clipPath216"><path
         d="M 453.901,1111.735 232.435,907.863 256.11,882.146 c 28.197,-30.633 75.888,-32.605 106.52,-4.407 v 0 l 210.647,193.913 c 5.976,5.5 6.36,14.803 0.86,20.778 v 0 l -13.716,14.9 c -14.861,16.144 -35.142,24.327 -55.481,24.328 v 0 c -18.253,0 -36.551,-6.586 -51.039,-19.923"
         id="path214"
         inkscape:connector-curvature="0" /></clipPath><linearGradient
       x1="0"
       y1="0"
       x2="1"
       y2="0"
       gradientUnits="userSpaceOnUse"
       gradientTransform="matrix(-113.21679,-151.31859,-151.31859,113.21679,497.49121,1116.0309)"
       spreadMethod="pad"
       id="linearGradient228"><stop
         style="stop-opacity:1;stop-color:#f9ae3b"
         offset="0"
         id="stop222" /><stop
         style="stop-opacity:1;stop-color:#f9ae3b"
         offset="0.00000081"
         id="stop224" /><stop
         style="stop-opacity:1;stop-color:#ef5a24"
         offset="1"
         id="stop226" /></linearGradient><clipPath
       clipPathUnits="userSpaceOnUse"
       id="clipPath238"><path
         d="m 230.517,906.736 -0.042,-3.005 c -0.712,-51.029 40.078,-92.974 91.108,-93.687 v 0 l 244.365,-3.41 c 4.042,-0.057 7.364,3.173 7.42,7.215 v 0 c 0.712,51.03 -40.078,92.975 -91.108,93.688 v 0 l -247.368,3.452 c -0.021,0 -0.041,0 -0.062,0 v 0 c -2.355,10e-4 -4.28,-1.892 -4.313,-4.253"
         id="path236"
         inkscape:connector-curvature="0" /></clipPath><linearGradient
       x1="0"
       y1="0"
       x2="1"
       y2="0"
       gradientUnits="userSpaceOnUse"
       gradientTransform="matrix(204.52243,-5.6137409,-6.4139943,-118.50818,200.76961,864.31165)"
       spreadMethod="pad"
       id="linearGradient250"><stop
         style="stop-opacity:1;stop-color:#f9ae3b"
         offset="0"
         id="stop244" /><stop
         style="stop-opacity:1;stop-color:#f9ae3b"
         offset="0.00000081"
         id="stop246" /><stop
         style="stop-opacity:1;stop-color:#ef5a24"
         offset="1"
         id="stop248" /></linearGradient><clipPath
       clipPathUnits="userSpaceOnUse"
       id="clipPath260"><path
         d="m 234.77,1185.43 c -0.771,-55.18 43.337,-100.536 98.516,-101.306 v 0 l 236.91,-3.307 c 4.009,-0.056 7.305,3.148 7.361,7.159 v 0 l 0.044,3.159 c 0.77,55.18 -43.337,100.536 -98.517,101.306 v 0 l -233.75,3.262 c -0.049,10e-4 -0.099,10e-4 -0.148,10e-4 v 0 c -5.687,0 -10.336,-4.569 -10.416,-10.274"
         id="path258"
         inkscape:connector-curvature="0" /></clipPath><linearGradient
       x1="0"
       y1="0"
       x2="1"
       y2="0"
       gradientUnits="userSpaceOnUse"
       gradientTransform="matrix(273.24435,-107.77367,-107.77367,-273.24435,233.17674,1206.521)"
       spreadMethod="pad"
       id="linearGradient272"><stop
         style="stop-opacity:1;stop-color:#f9ae3b"
         offset="0"
         id="stop266" /><stop
         style="stop-opacity:1;stop-color:#f9ae3b"
         offset="0.00000081"
         id="stop268" /><stop
         style="stop-opacity:1;stop-color:#ef5a24"
         offset="1"
         id="stop270" /></linearGradient><clipPath
       clipPathUnits="userSpaceOnUse"
       id="clipPath282"><path
         d="m 1977.911,893.161 c -38.068,0 -68.927,-30.86 -68.927,-68.928 v 0 -0.828 c 0,-8.783 7.119,-15.902 15.901,-15.902 v 0 h 139.601 c 8.783,0 15.902,7.119 15.902,15.902 v 0 53.854 c 0,8.783 -7.119,15.902 -15.902,15.902 v 0 z"
         id="path280"
         inkscape:connector-curvature="0" /></clipPath><linearGradient
       x1="0"
       y1="0"
       x2="1"
       y2="0"
       gradientUnits="userSpaceOnUse"
       gradientTransform="matrix(101.49565,-74.334839,-74.334839,-101.49565,1971.1119,867.59698)"
       spreadMethod="pad"
       id="linearGradient294"><stop
         style="stop-opacity:1;stop-color:#0778c0"
         offset="0"
         id="stop288" /><stop
         style="stop-opacity:1;stop-color:#0778c0"
         offset="0.00000013"
         id="stop290" /><stop
         style="stop-opacity:1;stop-color:#1c3e92"
         offset="1"
         id="stop292" /></linearGradient><clipPath
       clipPathUnits="userSpaceOnUse"
       id="clipPath304"><path
         d="m 1741.697,979.69 c 0,-95.097 75.606,-172.187 168.87,-172.187 v 0 c 93.264,0 168.87,77.09 168.87,172.187 v 0 c 0,95.095 -75.606,172.185 -168.87,172.185 v 0 c -93.264,0 -168.87,-77.09 -168.87,-172.185 m 75.539,0 c 0,52.556 41.786,95.163 93.331,95.163 v 0 c 51.545,0 93.332,-42.607 93.332,-95.163 v 0 c 0,-52.559 -41.787,-95.165 -93.332,-95.165 v 0 c -51.545,0 -93.331,42.606 -93.331,95.165"
         id="path302"
         inkscape:connector-curvature="0" /></clipPath><linearGradient
       x1="0"
       y1="0"
       x2="1"
       y2="0"
       gradientUnits="userSpaceOnUse"
       gradientTransform="matrix(123.88078,-152.69026,-152.69026,-123.88078,1832.4248,1076.0042)"
       spreadMethod="pad"
       id="linearGradient316"><stop
         style="stop-opacity:1;stop-color:#0778c0"
         offset="0"
         id="stop310" /><stop
         style="stop-opacity:1;stop-color:#0778c0"
         offset="0.00000013"
         id="stop312" /><stop
         style="stop-opacity:1;stop-color:#1c3e92"
         offset="1"
         id="stop314" /></linearGradient><clipPath
       clipPathUnits="userSpaceOnUse"
       id="clipPath326"><path
         d="m 1502.842,2171.277 c -102.925,-13.771 -177.669,-101.855 -177.413,-202.967 v 0 h 288.234 c 48.614,0 95.693,6.539 140.447,18.721 v 0 c -6.529,0.615 -13.127,1.002 -19.785,1.15 v 0 c -0.069,-2.009 -1.047,2.99 -1.653,7.513 v 0 c -13.747,102.748 -101.556,177.412 -202.448,177.413 v 0 c -9.038,0 -18.178,-0.598 -27.382,-1.83"
         id="path324"
         inkscape:connector-curvature="0" /></clipPath><linearGradient
       x1="0"
       y1="0"
       x2="1"
       y2="0"
       gradientUnits="userSpaceOnUse"
       gradientTransform="matrix(392.04031,10.966164,10.966164,-392.04031,1341.4192,2064.1948)"
       spreadMethod="pad"
       id="linearGradient338"><stop
         style="stop-opacity:1;stop-color:#f9ae3b"
         offset="0"
         id="stop332" /><stop
         style="stop-opacity:1;stop-color:#f9ae3b"
         offset="0.00000081"
         id="stop334" /><stop
         style="stop-opacity:1;stop-color:#ef5a24"
         offset="1"
         id="stop336" /></linearGradient><clipPath
       clipPathUnits="userSpaceOnUse"
       id="clipPath348"><path
         d="m 986.418,2581.851 c -40.697,0 -73.689,-32.993 -73.689,-73.69 v 0 -462.832 c 0,-42.537 34.482,-77.019 77.02,-77.019 v 0 h 64.297 c -0.487,272.414 232.909,504.094 531.137,473.615 v 0 c 155.463,-15.888 330.55,-149.682 386.87,-295.451 v 0 c 3.868,-10.01 7.346,-20.027 10.527,-30.042 v 0 c 101.433,97.121 164.605,233.879 164.605,385.4 v 0 6.329 c 0,40.697 -32.991,73.69 -73.69,73.69 v 0 z"
         id="path346"
         inkscape:connector-curvature="0" /></clipPath><linearGradient
       x1="0"
       y1="0"
       x2="1"
       y2="0"
       gradientUnits="userSpaceOnUse"
       gradientTransform="matrix(1139.4454,31.872601,31.872601,-1139.4454,960.58728,2273.4268)"
       spreadMethod="pad"
       id="linearGradient360"><stop
         style="stop-opacity:1;stop-color:#f9ae3b"
         offset="0"
         id="stop354" /><stop
         style="stop-opacity:1;stop-color:#f9ae3b"
         offset="0.00000081"
         id="stop356" /><stop
         style="stop-opacity:1;stop-color:#ef5a24"
         offset="1"
         id="stop358" /></linearGradient><clipPath
       clipPathUnits="userSpaceOnUse"
       id="clipPath370"><path
         d="M 1735.488,1969.805 H 1446.25 c -41.391,0 -81.68,-4.715 -120.361,-13.635 v 0 c 1.433,-21.684 6.325,-43.835 15.151,-65.87 v 0 c 26.05,-65.04 84.864,-111.897 154.086,-122.714 v 0 c 36.271,-5.668 70.366,-2.105 100.911,8.322 v 0 c 8.78,2.997 17.878,-3.659 17.878,-12.937 v 0 -248.151 l -0.079,-13.328 c -7.769,-1.431 -12.836,-2.687 -20.753,-3.746 v 0 c -231.298,-30.949 -445.97,109.787 -515.617,324.067 v 0 C 975.956,1724.684 912.729,1587.87 912.729,1436.283 v 0 -6.33 c 0,-40.697 32.992,-73.689 73.69,-73.689 v 0 h 1087.076 c 40.699,0 73.69,32.992 73.69,73.689 v 0 462.833 c 0,42.535 -34.483,77.019 -77.019,77.019 v 0 h -64.249 c 0.014,-8.276 -0.188,-16.513 -0.601,-24.706 v 0 c -2.195,-43.547 -54.807,-64.597 -85.929,-34.059 v 0 c -47.572,46.679 -112.215,76.101 -183.899,77.986 v 0 z m 70.86,-474.887 -52.119,0.588 c -3.13,0.035 -5.649,2.582 -5.649,5.712 v 0 461.629 c 16.325,-0.877 32.015,-3.588 47.009,-7.834 v 0 c 9.429,-2.669 16.536,-10.354 16.536,-20.153 v 0 -434.23 c 0,-3.158 -2.563,-5.712 -5.713,-5.712 v 0 c -0.021,0 -0.043,0 -0.064,0 m 96.507,0 -48.482,0.498 c -4.158,0.043 -7.503,3.126 -7.503,6.915 v 0 416.739 c 0,5.142 5.994,8.598 10.995,6.204 v 0 c 17.506,-8.382 36.185,-28.916 49.764,-41.781 v 0 c 1.639,-1.554 2.899,-3.336 2.899,-5.465 v 0 -376.195 c 0,-3.823 -3.401,-6.916 -7.585,-6.916 v 0 c -0.029,0 -0.059,0 -0.088,0 m -194.075,0 -53.671,0.648 c -2.956,0.037 -5.334,2.614 -5.334,5.783 v 0 280.025 c 0,6.208 4.114,13.824 9.067,17.044 v 0 c 31.364,20.392 32.765,39.6 55.394,59.804 v 0 -357.522 c 0,-3.197 -2.42,-5.782 -5.395,-5.782 v 0 c -0.02,0 -0.041,0 -0.061,0 m 277.026,0 -36.505,0.39 v 342.955 c 0,4.707 6.444,6.516 9.206,2.601 v 0 c 24.475,-34.684 40.756,-74.942 46.284,-118.275 v 0 -177.709 l -0.664,-33.064 c -0.138,-9.38 -8.221,-16.899 -18.113,-16.899 v 0 c -0.07,0 -0.139,0 -0.208,0"
         id="path368"
         inkscape:connector-curvature="0" /></clipPath><linearGradient
       x1="0"
       y1="0"
       x2="1"
       y2="0"
       gradientUnits="userSpaceOnUse"
       gradientTransform="matrix(1234.4558,0,0,-1234.4558,912.72913,1672.6451)"
       spreadMethod="pad"
       id="linearGradient382"><stop
         style="stop-opacity:1;stop-color:#0778c0"
         offset="0"
         id="stop376" /><stop
         style="stop-opacity:1;stop-color:#0778c0"
         offset="0.00000013"
         id="stop378" /><stop
         style="stop-opacity:1;stop-color:#1c3e92"
         offset="1"
         id="stop380" /></linearGradient><clipPath
       clipPathUnits="userSpaceOnUse"
       id="clipPath392"><path
         d="m 1308.353,1969.057 c 0,-122.388 99.215,-221.604 221.604,-221.604 v 0 c 122.389,0 221.603,99.216 221.603,221.604 v 0 c 0,122.389 -99.214,221.604 -221.603,221.604 v 0 c -122.389,0 -221.604,-99.215 -221.604,-221.604"
         id="path390"
         inkscape:connector-curvature="0" /></clipPath><linearGradient
       x1="0"
       y1="0"
       x2="1"
       y2="0"
       gradientUnits="userSpaceOnUse"
       gradientTransform="matrix(215.54185,-146.83789,-146.83789,-215.54185,1368.4401,2079.0908)"
       spreadMethod="pad"
       id="linearGradient404"><stop
         style="stop-opacity:1;stop-color:#f9ae3b"
         offset="0"
         id="stop398" /><stop
         style="stop-opacity:1;stop-color:#f9ae3b"
         offset="0.00000081"
         id="stop400" /><stop
         style="stop-opacity:1;stop-color:#ef5a24"
         offset="1"
         id="stop402" /></linearGradient></defs><sodipodi:namedview
     pagecolor="#ffffff"
     bordercolor="#666666"
     borderopacity="1"
     objecttolerance="10"
     gridtolerance="10"
     guidetolerance="10"
     inkscape:pageopacity="0"
     inkscape:pageshadow="2"
     inkscape:window-width="1309"
     inkscape:window-height="700"
     id="namedview4"
     showgrid="false"
     showborder="false"
     inkscape:zoom="0.059"
     inkscape:cx="2000"
     inkscape:cy="2000"
     inkscape:window-x="0"
     inkscape:window-y="31"
     inkscape:window-maximized="0"
     inkscape:current-layer="g10" /><g
     id="g10"
     inkscape:groupmode="layer"
     inkscape:label="展群源文件"
     transform="matrix(1.3333333,0,0,-1.3333333,0,4000)"><g
       id="g12"><g
         id="g14"
         clip-path="url(#clipPath18)"><g
           id="g20"><g
             id="g22"><path
               d="m 832.328,692.641 c -10.521,0 -19.164,-2.795 -25.93,-8.38 v 0 c -6.762,-5.589 -10.145,-11.784 -10.145,-18.571 v 0 l 0.376,-270.837 h 18.038 c 5.007,0 9.264,1.536 12.776,4.602 v 0 c 3.505,3.072 5.26,6.795 5.26,11.174 v 0 l -0.375,191.296 h 269.807 c 10.017,0 18.162,2.243 24.426,6.737 v 0 c 6.261,4.489 9.395,11.228 9.395,20.214 v 0 36.814 c 0,3.724 -1.443,7.668 -4.321,11.832 v 0 c -2.884,4.16 -7.081,7.723 -12.589,10.683 v 0 c -5.514,2.957 -11.9,4.436 -19.165,4.436 v 0 z m 0,-26.951 h 246.886 c 7.763,0 13.151,-1.099 16.157,-3.287 v 0 c 3.009,-2.194 4.51,-6.029 4.51,-11.503 v 0 -22.024 H 832.328 Z m 210.811,-69.024 V 578.259 H 934.915 v 18.407 H 898.839 V 578.259 H 848.111 V 563.3 c 0,-6.623 5.37,-11.992 11.993,-11.992 v 0 h 30.469 c 2.502,0 4.51,-0.771 6.011,-2.3 v 0 c 1.504,-1.537 2.255,-3.401 2.255,-5.589 v 0 -32.867 H 843.227 V 483.6 h 22.546 v -57.192 l -6.39,-0.328 v -27.938 c 21.292,0 42.465,1.207 63.506,3.613 v 0 c 21.044,2.416 38.33,5.81 51.86,10.19 v 0 27.938 c -19.794,-5.695 -44.097,-9.531 -72.901,-11.503 v 0 55.22 h 70.645 c 13.527,-24.982 34.318,-44.48 62.377,-58.508 v 0 c 28.057,-14.02 61.752,-24.1 101.086,-30.239 v 0 31.555 c -19.294,2.85 -35.701,6.357 -49.227,10.518 v 0 l 20.292,35.827 h -36.076 l -12.775,-25.637 c -22.049,10.296 -38.331,22.458 -48.851,36.484 v 0 h 108.601 c 4.753,-0.222 8.952,0.929 12.586,3.449 v 0 c 3.631,2.519 5.45,5.641 5.45,9.369 v 0 14.134 h -56.742 v 40.756 h 52.232 v 26.951 h -52.232 v 18.407 z M 934.915,551.308 h 99.955 c 2.502,0 4.51,-0.771 6.014,-2.3 v 0 c 1.505,-1.537 2.255,-3.401 2.255,-5.589 v 0 -32.867 H 934.915 Z"
               style="fill:url(#linearGradient30);stroke:none"
               id="path32"
               inkscape:connector-curvature="0" /></g></g></g></g><g
       id="g34"><g
         id="g36"
         clip-path="url(#clipPath40)"><g
           id="g42"><g
             id="g44"><path
               d="m 1463.633,693.957 -10.895,-35.499 h -36.076 l -10.899,35.499 h -36.072 l 10.896,-35.499 h -22.17 v -26.953 h 49.601 c 2.502,0 4.568,-0.769 6.201,-2.3 v 0 c 1.626,-1.535 2.443,-3.4 2.443,-5.587 v 0 -57.19 h -53.736 v -26.954 h 45.092 c 2.502,0 4.568,-0.771 6.201,-2.3 v 0 c 1.626,-1.535 2.443,-3.399 2.443,-5.588 v 0 -63.105 h -62.755 v -26.954 h 62.755 v -46.674 h 36.076 v 46.674 h 47.721 c 10.017,0 15.033,4.49 15.033,13.475 v 0 13.479 h -62.754 v 70.993 h 54.11 v 26.954 h -54.11 v 65.077 h 58.244 v 26.953 h -22.17 l 10.897,35.499 z m -282.208,-27.281 h 42.464 l -1.128,-31.883 h -46.596 v -26.952 h 45.092 c -0.751,-12.711 -2.008,-23.556 -3.757,-32.539 v 0 h -36.075 v -26.954 h 29.311 c -3.757,-10.08 -8.895,-19.01 -15.406,-26.786 v 0 c -6.517,-7.781 -15.03,-15.286 -25.554,-22.515 v 0 -22.632 c 0,-3.892 4.303,-6.266 7.587,-4.177 v 0 c 7.536,4.79 13.773,9.016 18.717,12.674 v 0 -90.059 h 112.735 c 9.017,0 16.721,2.796 23.11,8.381 v 0 c 6.387,5.589 9.582,12.327 9.582,20.214 v 0 70.341 c 0,7.887 -3.195,14.676 -9.582,20.377 v 0 c -6.389,5.696 -14.093,8.546 -23.11,8.546 v 0 h -77.034 c 4.256,6.573 8.39,15.119 12.4,25.636 v 0 h 77.41 c 8.013,0 13.024,1.81 15.03,5.424 v 0 c 2.002,3.616 3.006,8.818 3.006,15.613 v 0 38.456 h 10.524 v 26.952 h -10.524 v 29.91 c 0,7.889 -3.195,14.628 -9.581,20.214 v 0 c -6.389,5.589 -14.093,8.383 -23.11,8.383 v 0 l -125.511,0.328 z m 78.915,-0.329 h 34.196 c 2.499,0 4.631,-0.771 6.386,-2.3 v 0 c 1.751,-1.537 2.63,-3.4 2.63,-5.589 v 0 -23.665 h -44.341 c 0.751,9.862 1.129,20.38 1.129,31.554 m -3.384,-58.506 h 27.431 l 10.524,-0.329 c 2.499,0 4.568,-0.771 6.2,-2.3 v 0 c 1.626,-1.535 2.441,-3.401 2.441,-5.589 v 0 -24.321 h -51.856 c 2.503,10.734 4.257,21.58 5.26,32.539 m -24.8,-112.081 h 64.256 c 2.502,0 4.635,-0.82 6.389,-2.466 v 0 c 1.749,-1.643 2.631,-3.564 2.631,-5.751 v 0 -65.736 h -73.276 z"
               style="fill:url(#linearGradient52);stroke:none"
               id="path54"
               inkscape:connector-curvature="0" /></g></g></g></g><g
       id="g56"><g
         id="g58"
         clip-path="url(#clipPath62)"><g
           id="g64"><g
             id="g66"><path
               d="M 1829.265,693.957 V 481.955 L 1709.14,449.766 c -5.835,-1.563 -9.892,-6.85 -9.892,-12.89 v 0 -16.713 l 130.017,34.839 v -60.476 h 36.076 v 70.009 l 22.17,5.917 v 26.95 l -22.17,-5.914 v 186.776 c 0,8.667 -7.026,15.693 -15.693,15.693 v 0 z m -281.832,-2.629 v -26.953 h 52.234 v -47.658 h -42.754 c -6.273,0 -11.359,-5.086 -11.359,-11.36 v 0 -15.593 h 54.113 V 394.526 h 36.072 v 195.238 h 42.037 c 6.462,0 11.702,5.239 11.702,11.702 v 0 15.251 h -53.739 v 47.658 h 33.07 c 6.258,0 11.021,1.644 14.28,4.93 v 0 c 3.253,3.287 4.884,7.011 4.884,11.176 v 0 10.847 z m 177.742,-5.589 48.1,-97.619 h 36.074 l -43.578,88.442 c -2.768,5.618 -8.488,9.177 -14.752,9.177 v 0 z m -20.666,-109.122 48.1,-97.619 h 36.072 l -43.772,88.841 c -2.649,5.375 -8.12,8.778 -14.111,8.778 v 0 z m -154.821,-22.68 v -142.32 h 18.79 c 7.261,0 11.957,2.084 14.09,6.245 v 0 c 2.128,4.163 3.195,9.974 3.195,17.42 v 0 118.655 z m 89.06,-1.316 25.176,-82.169 h 36.075 l -22.15,72.282 c -1.799,5.875 -7.225,9.887 -13.37,9.887 v 0 z"
               style="fill:url(#linearGradient74);stroke:none"
               id="path76"
               inkscape:connector-curvature="0" /></g></g></g></g><g
       id="g78"><g
         id="g80"
         clip-path="url(#clipPath84)"><g
           id="g86"><g
             id="g88"><path
               d="m 2134.769,693.957 v -31.883 h -74.25 c -6.308,0 -11.423,-5.115 -11.423,-11.423 v 0 -4.302 c 0,-6.201 5.027,-11.228 11.228,-11.228 v 0 h 65.054 c 4.254,0 6.884,-0.606 7.89,-1.806 v 0 c 0.995,-1.206 1.501,-3.566 1.501,-7.068 v 0 -31.226 h -64.296 c -5.789,0 -10.484,-4.693 -10.484,-10.483 v 0 -16.467 h 159.709 c 0,-9.205 -5.074,-20.544 -15.223,-34.019 v 0 c -10.142,-13.476 -23.735,-27.338 -40.767,-41.578 v 0 l -63.509,62.12 h -40.21 l 81.548,-79.541 c -14.786,-10.739 -30.066,-20.328 -45.848,-28.759 v 0 c -15.781,-8.434 -30.939,-15.064 -45.469,-19.886 v 0 -31.555 c 18.789,5.918 38.015,13.919 57.683,23.993 v 0 c 19.663,10.084 38.517,21.366 56.555,33.856 v 0 l 58.994,-57.849 h 40.209 l -76.66,74.94 c 21.048,16.873 37.771,33.905 50.172,51.112 v 0 c 12.4,17.198 18.598,32.92 18.598,47.166 v 0 9.859 c 0,5.696 -1.629,9.968 -4.883,12.819 v 0 c -3.259,2.845 -9.019,4.272 -17.289,4.272 v 0 h -62.751 v 40.1 h 77.442 c 6.622,0 11.99,5.369 11.99,11.991 v 0 14.962 h -89.432 v 19.186 c 0,7.012 -5.684,12.697 -12.696,12.697 v 0 z m -166.469,0 v -40.1 h -43.214 v -17.502 c 0,-5.22 4.232,-9.451 9.452,-9.451 v 0 h 25.12 c 2.502,0 4.568,-0.769 6.203,-2.3 v 0 c 1.624,-1.535 2.439,-3.401 2.439,-5.587 v 0 -101.563 l -27.297,-5.619 c -6.422,-1.323 -11.03,-6.976 -11.03,-13.532 v 0 -16.676 l 38.327,8.218 v -54.891 c 0,-8.763 -3.754,-13.147 -11.272,-13.147 v 0 h -34.946 v -13.478 c 0,-3.722 1.563,-6.901 4.696,-9.53 v 0 c 3.13,-2.629 6.7,-3.946 10.71,-3.946 v 0 h 31.941 c 11.27,0 19.917,3.073 25.929,9.204 v 0 c 6.011,6.137 9.018,13.04 9.018,20.707 v 0 72.638 l 29.684,6.245 c 4.259,0.873 7.896,3.123 10.899,6.739 v 0 c 3.009,3.617 4.509,7.284 4.509,11.013 v 0 13.146 l -45.092,-9.534 v 101.893 h 41.334 v 19.286 c 0,4.235 -3.433,7.667 -7.667,7.667 v 0 h -33.667 v 40.1 z"
               style="fill:url(#linearGradient96);stroke:none"
               id="path98"
               inkscape:connector-curvature="0" /></g></g></g></g><g
       id="g100"><g
         id="g102"
         clip-path="url(#clipPath106)"><g
           id="g108"><g
             id="g110"><path
               d="m 991.284,980.614 c 0,-94.355 72.837,-170.845 162.684,-170.845 v 0 c 29.663,0 57.447,8.378 81.393,22.942 v 0 -0.703 c 0,-8.218 6.344,-14.879 14.168,-14.879 v 0 h 52.955 c 7.826,0 14.17,6.661 14.17,14.879 v 0 70.552 58.555 18.375 h -0.027 c 0,0.376 0.027,0.748 0.027,1.124 v 0 c 0,94.356 -72.837,170.846 -162.686,170.846 v 0 c -89.847,0 -162.684,-76.49 -162.684,-170.846 m 72.067,0 c 0,52.559 40.57,95.164 90.617,95.164 v 0 c 50.048,0 90.62,-42.605 90.62,-95.164 v 0 c 0,-52.557 -40.572,-95.163 -90.62,-95.163 v 0 c -50.047,0 -90.617,42.606 -90.617,95.163"
               style="fill:url(#linearGradient118);stroke:none"
               id="path120"
               inkscape:connector-curvature="0" /></g></g></g></g><g
       id="g122"><g
         id="g124"
         clip-path="url(#clipPath128)"><g
           id="g130"><g
             id="g132"><path
               d="m 2369.16,1139.536 c 0,-0.52 0.374,-153.364 0.374,-156.916 v 0 c 0,-50.072 -38.773,-90.664 -86.601,-90.664 v 0 c -47.83,0 -86.602,40.592 -86.602,90.664 v 0 10.513 l 0.154,146.39 c 0,0.01 -0.01,0.014 -0.014,0.014 v 0 h -77.914 c -0.01,0 -0.015,0.01 -0.015,-10e-4 v 0 c -0.01,-0.515 -1.638,-155.577 -1.638,-163.72 v 0 c 0,-94.06 72.834,-170.311 162.682,-170.311 v 0 c 89.846,0 162.68,76.251 162.68,170.311 v 0 c 0,5.854 -0.036,163.721 -0.036,163.721 v 0 h -73.056 c 0,0 -0.01,0 -0.012,0 v 0 c -10e-4,0 0,-10e-4 0,0"
               style="fill:url(#linearGradient140);stroke:none"
               id="path142"
               inkscape:connector-curvature="0" /></g></g></g></g><g
       id="g144"><g
         id="g146"
         clip-path="url(#clipPath150)"><g
           id="g152"><g
             id="g154"><path
               d="m 1366.492,975.272 c 0,-6.08 0.876,-91.169 1.369,-138.516 v 0 c 0.181,-17.323 14.886,-31.251 32.964,-31.251 v 0 h 15.178 c 18.219,0 32.983,14.163 32.965,31.623 v 0 l -0.127,120.189 v 10.9 c 0,51.922 40.199,106.272 89.789,106.272 v 0 c 49.588,0 89.789,-54.35 89.789,-106.272 v 0 c 0,-2.634 -0.198,-84.498 -0.312,-131.079 v 0 c -0.041,-17.476 14.73,-31.633 32.965,-31.633 v 0 h 9.761 c 18.203,0 32.961,14.116 32.965,31.561 v 0 c 0.011,47.886 0.03,133.84 0.03,138.206 v 0 c 0,97.535 -75.516,176.603 -168.669,176.603 v 0 c -93.153,0 -168.667,-79.068 -168.667,-176.603"
               style="fill:url(#linearGradient162);stroke:none"
               id="path164"
               inkscape:connector-curvature="0" /></g></g></g></g><g
       id="g166"><g
         id="g168"
         clip-path="url(#clipPath172)"><g
           id="g174"><g
             id="g176"><path
               d="m 2492.112,975.069 c 0,-8.447 1.697,-169.564 1.697,-169.564 v 0 h 80.812 l -0.16,151.63 v 10.889 c 0,51.858 40.199,93.899 89.789,93.899 v 0 c 49.588,0 89.789,-42.041 89.789,-93.899 v 0 c 0,-3.686 -0.387,-162.519 -0.387,-162.519 v 0 h 75.759 c 0,0 0.037,163.501 0.037,169.564 v 0 c 0,97.417 -75.516,176.391 -168.669,176.391 v 0 c -93.153,0 -168.667,-78.974 -168.667,-176.391"
               style="fill:url(#linearGradient184);stroke:none"
               id="path186"
               inkscape:connector-curvature="0" /></g></g></g></g><g
       id="g188"><g
         id="g190"
         clip-path="url(#clipPath194)"><g
           id="g196"><g
             id="g198"><path
               d="M 639.814,1199.913 V 806.165 h 55.508 c 21.892,0 39.647,17.734 39.673,39.626 v 0 l 0.112,91.608 c 0,34.924 31.323,63.336 69.825,63.336 v 0 c 38.499,0 69.822,-28.412 69.822,-63.336 v 0 c 0,-1.761 -0.14,-53.216 -0.246,-91.058 v 0 c -0.06,-21.955 17.72,-39.766 39.674,-39.766 v 0 h 41.227 l 0.031,136.156 c 0,77.93 -68.864,141.328 -153.509,141.328 v 0 c -19.317,0 -37.807,-3.308 -54.846,-9.332 v 0 c -5.915,-2.093 -12.138,2.133 -12.138,8.407 v 0 85.403 c 0,17.328 -14.048,31.376 -31.377,31.376 v 0 z"
               style="fill:url(#linearGradient206);stroke:none"
               id="path208"
               inkscape:connector-curvature="0" /></g></g></g></g><g
       id="g210"><g
         id="g212"
         clip-path="url(#clipPath216)"><g
           id="g218"><g
             id="g220"><path
               d="M 453.901,1111.735 232.435,907.863 256.11,882.146 c 28.197,-30.633 75.888,-32.605 106.52,-4.407 v 0 l 210.647,193.913 c 5.976,5.5 6.36,14.803 0.86,20.778 v 0 l -13.716,14.9 c -14.861,16.144 -35.142,24.327 -55.481,24.328 v 0 c -18.253,0 -36.551,-6.586 -51.039,-19.923"
               style="fill:url(#linearGradient228);stroke:none"
               id="path230"
               inkscape:connector-curvature="0" /></g></g></g></g><g
       id="g232"><g
         id="g234"
         clip-path="url(#clipPath238)"><g
           id="g240"><g
             id="g242"><path
               d="m 230.517,906.736 -0.042,-3.005 c -0.712,-51.029 40.078,-92.974 91.108,-93.687 v 0 l 244.365,-3.41 c 4.042,-0.057 7.364,3.173 7.42,7.215 v 0 c 0.712,51.03 -40.078,92.975 -91.108,93.688 v 0 l -247.368,3.452 c -0.021,0 -0.041,0 -0.062,0 v 0 c -2.355,10e-4 -4.28,-1.892 -4.313,-4.253"
               style="fill:url(#linearGradient250);stroke:none"
               id="path252"
               inkscape:connector-curvature="0" /></g></g></g></g><g
       id="g254"><g
         id="g256"
         clip-path="url(#clipPath260)"><g
           id="g262"><g
             id="g264"><path
               d="m 234.77,1185.43 c -0.771,-55.18 43.337,-100.536 98.516,-101.306 v 0 l 236.91,-3.307 c 4.009,-0.056 7.305,3.148 7.361,7.159 v 0 l 0.044,3.159 c 0.77,55.18 -43.337,100.536 -98.517,101.306 v 0 l -233.75,3.262 c -0.049,10e-4 -0.099,10e-4 -0.148,10e-4 v 0 c -5.687,0 -10.336,-4.569 -10.416,-10.274"
               style="fill:url(#linearGradient272);stroke:none"
               id="path274"
               inkscape:connector-curvature="0" /></g></g></g></g><g
       id="g276"><g
         id="g278"
         clip-path="url(#clipPath282)"><g
           id="g284"><g
             id="g286"><path
               d="m 1977.911,893.161 c -38.068,0 -68.927,-30.86 -68.927,-68.928 v 0 -0.828 c 0,-8.783 7.119,-15.902 15.901,-15.902 v 0 h 139.601 c 8.783,0 15.902,7.119 15.902,15.902 v 0 53.854 c 0,8.783 -7.119,15.902 -15.902,15.902 v 0 z"
               style="fill:url(#linearGradient294);stroke:none"
               id="path296"
               inkscape:connector-curvature="0" /></g></g></g></g><g
       id="g298"><g
         id="g300"
         clip-path="url(#clipPath304)"><g
           id="g306"><g
             id="g308"><path
               d="m 1741.697,979.69 c 0,-95.097 75.606,-172.187 168.87,-172.187 v 0 c 93.264,0 168.87,77.09 168.87,172.187 v 0 c 0,95.095 -75.606,172.185 -168.87,172.185 v 0 c -93.264,0 -168.87,-77.09 -168.87,-172.185 m 75.539,0 c 0,52.556 41.786,95.163 93.331,95.163 v 0 c 51.545,0 93.332,-42.607 93.332,-95.163 v 0 c 0,-52.559 -41.787,-95.165 -93.332,-95.165 v 0 c -51.545,0 -93.331,42.606 -93.331,95.165"
               style="fill:url(#linearGradient316);stroke:none"
               id="path318"
               inkscape:connector-curvature="0" /></g></g></g></g><g
       id="g320"><g
         id="g322"
         clip-path="url(#clipPath326)"><g
           id="g328"><g
             id="g330"><path
               d="m 1502.842,2171.277 c -102.925,-13.771 -177.669,-101.855 -177.413,-202.967 v 0 h 288.234 c 48.614,0 95.693,6.539 140.447,18.721 v 0 c -6.529,0.615 -13.127,1.002 -19.785,1.15 v 0 c -0.069,-2.009 -1.047,2.99 -1.653,7.513 v 0 c -13.747,102.748 -101.556,177.412 -202.448,177.413 v 0 c -9.038,0 -18.178,-0.598 -27.382,-1.83"
               style="fill:url(#linearGradient338);stroke:none"
               id="path340"
               inkscape:connector-curvature="0" /></g></g></g></g><g
       id="g342"><g
         id="g344"
         clip-path="url(#clipPath348)"><g
           id="g350"><g
             id="g352"><path
               d="m 986.418,2581.851 c -40.697,0 -73.689,-32.993 -73.689,-73.69 v 0 -462.832 c 0,-42.537 34.482,-77.019 77.02,-77.019 v 0 h 64.297 c -0.487,272.414 232.909,504.094 531.137,473.615 v 0 c 155.463,-15.888 330.55,-149.682 386.87,-295.451 v 0 c 3.868,-10.01 7.346,-20.027 10.527,-30.042 v 0 c 101.433,97.121 164.605,233.879 164.605,385.4 v 0 6.329 c 0,40.697 -32.991,73.69 -73.69,73.69 v 0 z"
               style="fill:url(#linearGradient360);stroke:none"
               id="path362"
               inkscape:connector-curvature="0" /></g></g></g></g><g
       id="g364"><g
         id="g366"
         clip-path="url(#clipPath370)"><g
           id="g372"><g
             id="g374"><path
               d="M 1735.488,1969.805 H 1446.25 c -41.391,0 -81.68,-4.715 -120.361,-13.635 v 0 c 1.433,-21.684 6.325,-43.835 15.151,-65.87 v 0 c 26.05,-65.04 84.864,-111.897 154.086,-122.714 v 0 c 36.271,-5.668 70.366,-2.105 100.911,8.322 v 0 c 8.78,2.997 17.878,-3.659 17.878,-12.937 v 0 -248.151 l -0.079,-13.328 c -7.769,-1.431 -12.836,-2.687 -20.753,-3.746 v 0 c -231.298,-30.949 -445.97,109.787 -515.617,324.067 v 0 C 975.956,1724.684 912.729,1587.87 912.729,1436.283 v 0 -6.33 c 0,-40.697 32.992,-73.689 73.69,-73.689 v 0 h 1087.076 c 40.699,0 73.69,32.992 73.69,73.689 v 0 462.833 c 0,42.535 -34.483,77.019 -77.019,77.019 v 0 h -64.249 c 0.014,-8.276 -0.188,-16.513 -0.601,-24.706 v 0 c -2.195,-43.547 -54.807,-64.597 -85.929,-34.059 v 0 c -47.572,46.679 -112.215,76.101 -183.899,77.986 v 0 z m 70.86,-474.887 -52.119,0.588 c -3.13,0.035 -5.649,2.582 -5.649,5.712 v 0 461.629 c 16.325,-0.877 32.015,-3.588 47.009,-7.834 v 0 c 9.429,-2.669 16.536,-10.354 16.536,-20.153 v 0 -434.23 c 0,-3.158 -2.563,-5.712 -5.713,-5.712 v 0 c -0.021,0 -0.043,0 -0.064,0 m 96.507,0 -48.482,0.498 c -4.158,0.043 -7.503,3.126 -7.503,6.915 v 0 416.739 c 0,5.142 5.994,8.598 10.995,6.204 v 0 c 17.506,-8.382 36.185,-28.916 49.764,-41.781 v 0 c 1.639,-1.554 2.899,-3.336 2.899,-5.465 v 0 -376.195 c 0,-3.823 -3.401,-6.916 -7.585,-6.916 v 0 c -0.029,0 -0.059,0 -0.088,0 m -194.075,0 -53.671,0.648 c -2.956,0.037 -5.334,2.614 -5.334,5.783 v 0 280.025 c 0,6.208 4.114,13.824 9.067,17.044 v 0 c 31.364,20.392 32.765,39.6 55.394,59.804 v 0 -357.522 c 0,-3.197 -2.42,-5.782 -5.395,-5.782 v 0 c -0.02,0 -0.041,0 -0.061,0 m 277.026,0 -36.505,0.39 v 342.955 c 0,4.707 6.444,6.516 9.206,2.601 v 0 c 24.475,-34.684 40.756,-74.942 46.284,-118.275 v 0 -177.709 l -0.664,-33.064 c -0.138,-9.38 -8.221,-16.899 -18.113,-16.899 v 0 c -0.07,0 -0.139,0 -0.208,0"
               style="fill:url(#linearGradient382);stroke:none"
               id="path384"
               inkscape:connector-curvature="0" /></g></g></g></g><g
       id="g386"><g
         id="g388"
         clip-path="url(#clipPath392)"><g
           id="g394"><g
             id="g396"><path
               d="m 1308.353,1969.057 c 0,-122.388 99.215,-221.604 221.604,-221.604 v 0 c 122.389,0 221.603,99.216 221.603,221.604 v 0 c 0,122.389 -99.214,221.604 -221.603,221.604 v 0 c -122.389,0 -221.604,-99.215 -221.604,-221.604"
               style="fill:url(#linearGradient404);stroke:none"
               id="path406"
               inkscape:connector-curvature="0" /></g></g></g></g></g></svg>